<svg viewBox="0 0 200 200" xmlns="http://www.w3.org/2000/svg">
  <defs>
    <style>
      .logo-fill { fill: #0052CC; }
    </style>
  </defs>
  <path class="logo-fill" d="M60 80C60 65 72 55 87 55C102 55 114 67 114 82L114 110C114 125 102 135 87 135C72 135 60 123 60 108L75 108C75 117 80 122 87 122C94 122 99 117 99 110L99 82C99 75 94 70 87 70C80 70 75 75 75 82L75 108C75 113 71 117 66 117C61 117 57 113 57 108L60 80Z"/>
  <path class="logo-fill" d="M125 50C130 50 135 55 135 60L135 130C135 135 130 140 125 140C120 140 115 135 115 130L115 60C115 55 120 50 125 50Z"/>
  <circle class="logo-fill" cx="155" cy="90" r="15"/>
</svg>
